<svg width="57" height="57" viewBox="0 0 57 57" fill="none" xmlns="http://www.w3.org/2000/svg">
<path d="M13.8047 44.4688C10.3672 44.4688 7.57031 43.3438 5.41406 41.0938C3.25781 38.8281 2.17969 35.8047 2.17969 32.0234V31.2266C2.17969 28.7109 2.65625 26.4688 3.60938 24.5C4.57812 22.5156 5.92188 20.9688 7.64062 19.8594C9.375 18.7344 11.25 18.1719 13.2656 18.1719C16.5625 18.1719 19.125 19.2578 20.9531 21.4297C22.7812 23.6016 23.6953 26.7109 23.6953 30.7578V32.5625H6.51562C6.57812 35.0625 7.30469 37.0859 8.69531 38.6328C10.1016 40.1641 11.8828 40.9297 14.0391 40.9297C15.5703 40.9297 16.8672 40.6172 17.9297 39.9922C18.9922 39.3672 19.9219 38.5391 20.7188 37.5078L23.3672 39.5703C21.2422 42.8359 18.0547 44.4688 13.8047 44.4688ZM13.2656 21.7344C11.5156 21.7344 10.0469 22.375 8.85938 23.6562C7.67188 24.9219 6.9375 26.7031 6.65625 29H19.3594V28.6719C19.2344 26.4688 18.6406 24.7656 17.5781 23.5625C16.5156 22.3438 15.0781 21.7344 13.2656 21.7344Z" fill="#00135F"/>
<path d="M35.5312 31.9766V44H28.5V9.875H41.8125C44.375 9.875 46.625 10.3438 48.5625 11.2812C50.5156 12.2188 52.0156 13.5547 53.0625 15.2891C54.1094 17.0078 54.6328 18.9688 54.6328 21.1719C54.6328 24.5156 53.4844 27.1562 51.1875 29.0938C48.9062 31.0156 45.7422 31.9766 41.6953 31.9766H35.5312ZM35.5312 26.2812H41.8125C43.6719 26.2812 45.0859 25.8438 46.0547 24.9688C47.0391 24.0938 47.5312 22.8438 47.5312 21.2188C47.5312 19.5469 47.0391 18.1953 46.0547 17.1641C45.0703 16.1328 43.7109 15.6016 41.9766 15.5703H35.5312V26.2812Z" fill="#0064CE"/>
</svg>
