<svg width="265" height="46" viewBox="0 0 265 46" fill="none" xmlns="http://www.w3.org/2000/svg">
<path d="M11.8047 36.4688C8.36719 36.4688 5.57031 35.3438 3.41406 33.0938C1.25781 30.8281 0.179688 27.8047 0.179688 24.0234V23.2266C0.179688 20.7109 0.65625 18.4688 1.60938 16.5C2.57812 14.5156 3.92188 12.9688 5.64062 11.8594C7.375 10.7344 9.25 10.1719 11.2656 10.1719C14.5625 10.1719 17.125 11.2578 18.9531 13.4297C20.7812 15.6016 21.6953 18.7109 21.6953 22.7578V24.5625H4.51562C4.57812 27.0625 5.30469 29.0859 6.69531 30.6328C8.10156 32.1641 9.88281 32.9297 12.0391 32.9297C13.5703 32.9297 14.8672 32.6172 15.9297 31.9922C16.9922 31.3672 17.9219 30.5391 18.7188 29.5078L21.3672 31.5703C19.2422 34.8359 16.0547 36.4688 11.8047 36.4688ZM11.2656 13.7344C9.51562 13.7344 8.04688 14.375 6.85938 15.6562C5.67188 16.9219 4.9375 18.7031 4.65625 21H17.3594V20.6719C17.2344 18.4688 16.6406 16.7656 15.5781 15.5625C14.5156 14.3438 13.0781 13.7344 11.2656 13.7344ZM33.5312 23.9766V36H26.5V1.875H39.8125C42.375 1.875 44.625 2.34375 46.5625 3.28125C48.5156 4.21875 50.0156 5.55469 51.0625 7.28906C52.1094 9.00781 52.6328 10.9688 52.6328 13.1719C52.6328 16.5156 51.4844 19.1562 49.1875 21.0938C46.9062 23.0156 43.7422 23.9766 39.6953 23.9766H33.5312ZM33.5312 18.2812H39.8125C41.6719 18.2812 43.0859 17.8438 44.0547 16.9688C45.0391 16.0938 45.5312 14.8438 45.5312 13.2188C45.5312 11.5469 45.0391 10.1953 44.0547 9.16406C43.0703 8.13281 41.7109 7.60156 39.9766 7.57031H33.5312V18.2812ZM68.3828 36.4688C64.6641 36.4688 61.6328 35.3281 59.2891 33.0469C56.9609 30.7656 55.7969 27.7266 55.7969 23.9297V23.2734C55.7969 20.7266 56.2891 18.4531 57.2734 16.4531C58.2578 14.4375 59.6484 12.8906 61.4453 11.8125C63.2578 10.7188 65.3203 10.1719 67.6328 10.1719C71.1016 10.1719 73.8281 11.2656 75.8125 13.4531C77.8125 15.6406 78.8125 18.7422 78.8125 22.7578V25.5234H62.6641C62.8828 27.1797 63.5391 28.5078 64.6328 29.5078C65.7422 30.5078 67.1406 31.0078 68.8281 31.0078C71.4375 31.0078 73.4766 30.0625 74.9453 28.1719L78.2734 31.8984C77.2578 33.3359 75.8828 34.4609 74.1484 35.2734C72.4141 36.0703 70.4922 36.4688 68.3828 36.4688ZM67.6094 15.6562C66.2656 15.6562 65.1719 16.1094 64.3281 17.0156C63.5 17.9219 62.9688 19.2188 62.7344 20.9062H72.1562V20.3672C72.125 18.8672 71.7188 17.7109 70.9375 16.8984C70.1562 16.0703 69.0469 15.6562 67.6094 15.6562ZM88.9141 10.6406L89.125 13.5703C90.9375 11.3047 93.3672 10.1719 96.4141 10.1719C99.1016 10.1719 101.102 10.9609 102.414 12.5391C103.727 14.1172 104.398 16.4766 104.43 19.6172V36H97.6562V19.7812C97.6562 18.3438 97.3438 17.3047 96.7188 16.6641C96.0938 16.0078 95.0547 15.6797 93.6016 15.6797C91.6953 15.6797 90.2656 16.4922 89.3125 18.1172V36H82.5391V10.6406H88.9141ZM108.602 23.1328C108.602 19.2422 109.523 16.1094 111.367 13.7344C113.227 11.3594 115.727 10.1719 118.867 10.1719C121.648 10.1719 123.812 11.125 125.359 13.0312L125.641 10.6406H131.781V35.1562C131.781 37.375 131.273 39.3047 130.258 40.9453C129.258 42.5859 127.844 43.8359 126.016 44.6953C124.188 45.5547 122.047 45.9844 119.594 45.9844C117.734 45.9844 115.922 45.6094 114.156 44.8594C112.391 44.125 111.055 43.1719 110.148 42L113.148 37.875C114.836 39.7656 116.883 40.7109 119.289 40.7109C121.086 40.7109 122.484 40.2266 123.484 39.2578C124.484 38.3047 124.984 36.9453 124.984 35.1797V33.8203C123.422 35.5859 121.367 36.4688 118.82 36.4688C115.773 36.4688 113.305 35.2812 111.414 32.9062C109.539 30.5156 108.602 27.3516 108.602 23.4141V23.1328ZM115.375 23.625C115.375 25.9219 115.836 27.7266 116.758 29.0391C117.68 30.3359 118.945 30.9844 120.555 30.9844C122.617 30.9844 124.094 30.2109 124.984 28.6641V18C124.078 16.4531 122.617 15.6797 120.602 15.6797C118.977 15.6797 117.695 16.3438 116.758 17.6719C115.836 19 115.375 20.9844 115.375 23.625ZM151.703 36C151.391 35.3906 151.164 34.6328 151.023 33.7266C149.383 35.5547 147.25 36.4688 144.625 36.4688C142.141 36.4688 140.078 35.75 138.438 34.3125C136.812 32.875 136 31.0625 136 28.875C136 26.1875 136.992 24.125 138.977 22.6875C140.977 21.25 143.859 20.5234 147.625 20.5078H150.742V19.0547C150.742 17.8828 150.438 16.9453 149.828 16.2422C149.234 15.5391 148.289 15.1875 146.992 15.1875C145.852 15.1875 144.953 15.4609 144.297 16.0078C143.656 16.5547 143.336 17.3047 143.336 18.2578H136.562C136.562 16.7891 137.016 15.4297 137.922 14.1797C138.828 12.9297 140.109 11.9531 141.766 11.25C143.422 10.5312 145.281 10.1719 147.344 10.1719C150.469 10.1719 152.945 10.9609 154.773 12.5391C156.617 14.1016 157.539 16.3047 157.539 19.1484V30.1406C157.555 32.5469 157.891 34.3672 158.547 35.6016V36H151.703ZM146.102 31.2891C147.102 31.2891 148.023 31.0703 148.867 30.6328C149.711 30.1797 150.336 29.5781 150.742 28.8281V24.4688H148.211C144.82 24.4688 143.016 25.6406 142.797 27.9844L142.773 28.3828C142.773 29.2266 143.07 29.9219 143.664 30.4688C144.258 31.0156 145.07 31.2891 146.102 31.2891ZM161.688 23.1328C161.688 19.1797 162.57 16.0312 164.336 13.6875C166.117 11.3438 168.547 10.1719 171.625 10.1719C174.094 10.1719 176.133 11.0938 177.742 12.9375V0H184.539V36H178.422L178.094 33.3047C176.406 35.4141 174.234 36.4688 171.578 36.4688C168.594 36.4688 166.195 35.2969 164.383 32.9531C162.586 30.5938 161.688 27.3203 161.688 23.1328ZM168.461 23.625C168.461 26 168.875 27.8203 169.703 29.0859C170.531 30.3516 171.734 30.9844 173.312 30.9844C175.406 30.9844 176.883 30.1016 177.742 28.3359V18.3281C176.898 16.5625 175.438 15.6797 173.359 15.6797C170.094 15.6797 168.461 18.3281 168.461 23.625ZM204.977 33.4219C203.305 35.4531 200.992 36.4688 198.039 36.4688C195.32 36.4688 193.242 35.6875 191.805 34.125C190.383 32.5625 189.656 30.2734 189.625 27.2578V10.6406H196.398V27.0234C196.398 29.6641 197.602 30.9844 200.008 30.9844C202.305 30.9844 203.883 30.1875 204.742 28.5938V10.6406H211.539V36H205.164L204.977 33.4219ZM231.344 36C231.031 35.3906 230.805 34.6328 230.664 33.7266C229.023 35.5547 226.891 36.4688 224.266 36.4688C221.781 36.4688 219.719 35.75 218.078 34.3125C216.453 32.875 215.641 31.0625 215.641 28.875C215.641 26.1875 216.633 24.125 218.617 22.6875C220.617 21.25 223.5 20.5234 227.266 20.5078H230.383V19.0547C230.383 17.8828 230.078 16.9453 229.469 16.2422C228.875 15.5391 227.93 15.1875 226.633 15.1875C225.492 15.1875 224.594 15.4609 223.938 16.0078C223.297 16.5547 222.977 17.3047 222.977 18.2578H216.203C216.203 16.7891 216.656 15.4297 217.562 14.1797C218.469 12.9297 219.75 11.9531 221.406 11.25C223.062 10.5312 224.922 10.1719 226.984 10.1719C230.109 10.1719 232.586 10.9609 234.414 12.5391C236.258 14.1016 237.18 16.3047 237.18 19.1484V30.1406C237.195 32.5469 237.531 34.3672 238.188 35.6016V36H231.344ZM225.742 31.2891C226.742 31.2891 227.664 31.0703 228.508 30.6328C229.352 30.1797 229.977 29.5781 230.383 28.8281V24.4688H227.852C224.461 24.4688 222.656 25.6406 222.438 27.9844L222.414 28.3828C222.414 29.2266 222.711 29.9219 223.305 30.4688C223.898 31.0156 224.711 31.2891 225.742 31.2891ZM248.617 10.6406L248.828 13.5703C250.641 11.3047 253.07 10.1719 256.117 10.1719C258.805 10.1719 260.805 10.9609 262.117 12.5391C263.43 14.1172 264.102 16.4766 264.133 19.6172V36H257.359V19.7812C257.359 18.3438 257.047 17.3047 256.422 16.6641C255.797 16.0078 254.758 15.6797 253.305 15.6797C251.398 15.6797 249.969 16.4922 249.016 18.1172V36H242.242V10.6406H248.617Z" fill="white"/>
</svg>
